<svg width="38" height="43" xmlns="http://www.w3.org/2000/svg">
    <g>
        <title>Layer 1</title>
        <g id="svg_1">
            <path id="svg_2" d="m17.147001,6.385c0.821999,0.275001 2.661999,0.118 3.543999,0.224c1.800001,0.215 3.318001,-0.643999 4.087,-1.405c4.222,-4.191 6.703001,-3.672 6.703001,-3.672l0.603998,-1.532l0.545002,0.926l0.317997,-0.798l0.225002,1.277l2.904999,3.48c0,0 -1.310001,-0.957999 -0.032001,0.128c1.277,1.084001 0.353001,2.17 0.353001,2.17c-0.926998,0.862 -2.489998,-0.861 -2.489998,-0.861c-1.533001,-0.256 -1.979,-0.958 -1.979,-0.958c-0.288,1.565001 -2.775999,3.639999 -2.775999,3.639999c-0.799,1.564002 -0.226,2.810002 -0.226,2.810002c0.83,0 2.331999,0.990998 2.331999,0.990998c1.309999,-0.032999 2.17,0.637002 2.17,0.637002l4.216,3.640999c0.717999,0.721001 0,0.798 0,0.798l-0.799999,0.032c-1.116001,0 -0.732002,-1.147999 -0.732002,-1.147999c-0.989998,0 -1.883999,-1.627001 -1.883999,-1.627001c-0.769001,-0.416001 -2.106998,-0.959 -2.106998,-0.959c-2.459,-0.799 -3.063,-0.191 -3.063,-0.191c0.67,0.639 2.268,4.023001 2.268,4.023001c0.573999,1.275999 3.415998,3.574999 3.415998,3.574999c1.146999,1.056 0.063,1.021999 0.063,1.021999h-1.184002c-1.052998,0 -0.509998,-1.181999 -0.509998,-1.181999l-0.382999,0.030001c-0.862,0 -1.055998,-1.276001 -1.055998,-1.276001c-0.576,-0.447001 -4.471001,-5.396001 -4.471001,-5.396001c-0.671,-1.084998 -1.214001,-0.893999 -1.214001,-0.893999c-4.691999,1.180001 -8.108,-0.319999 -8.108,-0.319999c-2.363001,-1.276001 -2.971001,-0.637001 -2.971001,-0.637001c-0.511,2.01 -3.447,3.224001 -3.447,3.224001c-1.5,0.67 -1.725,2.427 -1.725,2.427l0.031,2.202999c0.606,0.063999 1.724999,1.184 1.724999,1.184c0.926001,0.926001 -0.733999,0.83 -0.799,0.797001c-1.059,-0.528002 -0.731999,-0.67 -0.731999,-0.67c0,-0.353001 -0.129001,-0.287001 -0.129001,-0.287001c-1.436,-0.319 -0.958,-1.021 -0.958,-1.021l0.032001,-2.842001c0.032,-1.5 0.542,-2.011999 0.542,-2.011999c1.149,-0.605 1.149,-1.052999 1.149,-1.052999c-0.574,-0.385 -2.107,0.67 -2.107,0.67c-1.945,0.859999 -3.959,3 -3.959,3c-0.382,1.116999 -1.661,0.831999 -1.661,0.831999c-0.35,0.254 -0.925,0.445 -0.925,0.445c-1.947,0.447001 -0.928,-0.731998 -0.928,-0.731998c0.703,-1.086 1.533,-0.896 1.533,-0.896c0.064,0.318998 0.543,0.126999 0.543,0.126999c0.129,-0.511 2.746,-2.360001 2.746,-2.360001c0.574,-1.15 2.362,-2.236001 2.362,-2.236001c2.235,-1.339997 1.979,-2.041999 1.979,-2.041999c-0.063001,-2.106998 0.700999,-3.129 0.700999,-3.129c0.769,-0.958 0.065001,-0.767 0.065001,-0.767c-1.979,1.915999 -8.621,3.640001 -8.621,3.640001c2.235,-5.938001 9.704999,-4.853001 9.704999,-4.853001c2.177,-1.251 3.900001,-0.601 5.115002,-0.197001z"/>
        </g>
        <rect id="svg_3" height="29.045" width="1.078" y="14.015" x="20.195"/>
    </g>
</svg>